{"title":"18+ K-Shop 2016 UNCENSORED K-Shop 2016 Movies HDRip XviD New ☻rD","uid":15450211,"size":741063375,"categoryP":"video","categoryS":"movies","magnet":"?xt=urn:btih:6f195caff27afdb29cb5c157f22c7c719dee6da1&amp;dn=18%2B+K-Shop+2016+UNCENSORED+K-Shop+2016+Movies+HDRip+XviD+New+%E2%98%BBrD&amp;tr=udp%3A%2F%2Ftracker.leechers-paradise.org%3A6969&amp;tr=udp%3A%2F%2Fzer0day.ch%3A1337&amp;tr=udp%3A%2F%2Fopen.demonii.com%3A1337&amp;tr=udp%3A%2F%2Ftracker.coppersurfer.tk%3A6969&amp;tr=udp%3A%2F%2Fexodus.desync.com%3A6969","seeders":0,"leechers":9,"uploader":"basicssom","files":2,"time":1469934978,"description":"----------------------------------------------------------------\r\n18+ K-Shop 2016 UNCENSORED K-Shop 2016 English Movies HDRip XviD AAC New Source with Sample ☻rDX☻\r\n\r\nSCREEN SHOTS &amp; POSTER:\r\n  \nhttp://mobileshosting.com/2016/7/datacard/index.htm  \nhttp://mobileshosting.com/2016/7/datacard/1.html  \nhttp://mobileshosting.com/2016/7/datacard/2.html  \nhttp://mobileshosting.com/2016/7/datacard/3.html  \nhttp://mobileshosting.com/2016/7/datacard/4.html  \nhttp://mobileshosting.com/2016/7/datacard/5.html  \nhttp://mobileshosting.com/2016/7/datacard/6.html  \nhttp://mobileshosting.com/2016/7/datacard/7.html  \nhttp://mobileshosting.com/2016/7/datacard/8.html  \nhttp://mobileshosting.com/2016/7/datacard/9.html  \nhttp://mobileshosting.com/2016/7/datacard/10.html\r\n\r\nFormat                                   : Matroska\r\nFormat version                           : Version 4 / Version 2\r\nFile size                                : 693 MiB\r\nDuration                                 : 1 h 55 min\r\nOverall bit rate                         : 841 kb/s\r\nMovie name                               : K-Shop 2016 English Movies HDRip XviD AAC New Source ☻rDX☻\r\n\r\nVideo\r\nID                                       : 1\r\nFormat                                   : MPEG-4 Visual\r\nFormat profile                           : Advanced   \r\nFormat settings, BVOP                    : 2\r\nFormat settings, QPel                    : No\r\nFormat settings, GMC                     : No warppoints\r\nFormat settings, Matrix                  : Default (H.263)\r\nMuxing mode                              : Packed bitstream\r\nCodec ID                                 : V_MS/VFW/FOURCC / XVID\r\nCodec ID/Hint                            : XviD\r\nDuration                                 : 1 h 55 min\r\nBit rate                                 : 712 kb/s\r\nWidth                                    : 640 pixels\r\nHeight                                   : 272 pixels\r\nDisplay aspect ratio                     : 2.35:1\r\nFrame rate mode                          : Constant\r\nFrame rate                               : 25.000 FPS\r\nColor space                              : YUV\r\nChroma subsampling                       : 4:2:0\r\nBit depth                                : 8 bits\r\nScan type                                : Progressive\r\nCompression mode                         : Lossy\r\nBits/(Pixel*Frame)                       : 0.164\r\nStream size                              : 587 MiB (85%)\r\nTitle                                    : ☻rDX☻\r\nWriting library                          : XviD 64\r\nDefault                                  : Yes\r\nForced                                   : No\r\n\r\nAudio\r\nID                                       : 2\r\nFormat                                   : MPEG Audio\r\nFormat version                           : Version 1\r\nFormat profile                           : Layer 3\r\nMode                                     : Joint stereo\r\nCodec ID                                 : A_MPEG/L3\r\nCodec ID/Hint                            : MP3\r\nDuration                                 : 1 h 55 min\r\nBit rate mode                            : Constant\r\nBit rate                                 : 112 kb/s\r\nChannel(s)                               : 2 channels\r\nSampling rate                            : 48.0 kHz\r\nCompression mode                         : Lossy\r\nStream size                              : 92.3 MiB (13%)\r\nTitle                                    : ☻rDX☻\r\nWriting library                          : LAME3.99r\r\nEncoding settings                        : -m j -V 4 -q 3 -lowpass 15.6 -b 112\r\nDefault                                  : Yes\r\nForced                                   : No\r\n\r\nIMDB \nhttp://www.imdb.com/title/tt3221544/","torrent":{"xt":"urn:btih:6f195caff27afdb29cb5c157f22c7c719dee6da1","amp;dn":"18%2B+K-Shop+2016+UNCENSORED+K-Shop+2016+Movies+HDRip+XviD+New+%E2%98%BBrD","amp;tr":["udp%3A%2F%2Ftracker.leechers-paradise.org%3A6969","udp%3A%2F%2Fzer0day.ch%3A1337","udp%3A%2F%2Fopen.demonii.com%3A1337","udp%3A%2F%2Ftracker.coppersurfer.tk%3A6969","udp%3A%2F%2Fexodus.desync.com%3A6969"],"infoHash":"6f195caff27afdb29cb5c157f22c7c719dee6da1","infoHashBuffer":{"type":"Buffer","data":[111,25,92,175,242,122,253,178,156,181,193,87,242,44,124,113,157,238,109,161]},"announce":[],"urlList":[]}}